<?xml version="1.0" standalone="no"?>
<!DOCTYPE svg PUBLIC "-//W3C//DTD SVG 20010904//EN"
 "http://www.w3.org/TR/2001/REC-SVG-20010904/DTD/svg10.dtd">
<svg version="1.0" xmlns="http://www.w3.org/2000/svg"
 width="384.000000pt" height="384.000000pt" viewBox="0 0 384.000000 384.000000"
 preserveAspectRatio="xMidYMid meet">
<metadata>
Created by potrace 1.10, written by Peter Selinger 2001-2011
</metadata>
<g transform="translate(0.000000,384.000000) scale(0.100000,-0.100000)"
fill="#737172" stroke="none">
<path d="M65 2768 c-3 -7 -4 -398 -3 -868 l3 -855 865 0 865 0 0 865 0 865
-863 3 c-685 2 -864 0 -867 -10z m1480 -858 l0 -615 -609 -3 c-481 -2 -611 0
-618 10 -9 15 -11 1188 -2 1212 6 15 67 16 618 14 l611 -3 0 -615z"/>
<path d="M1076 2111 c-116 -114 -221 -214 -234 -220 -20 -11 -27 -8 -60 18
-20 16 -62 55 -92 86 -74 76 -101 90 -137 71 -16 -8 -48 -35 -72 -60 -76 -78
-75 -81 132 -288 98 -97 186 -180 197 -183 11 -3 30 -1 42 6 13 7 155 144 316
305 228 229 292 299 292 319 0 33 -118 155 -150 155 -16 0 -85 -61 -234 -209z"/>
<path d="M2055 2268 c-3 -13 -5 -70 -3 -128 l3 -105 870 0 870 0 3 114 c2 75
-1 118 -9 127 -10 12 -148 14 -870 14 l-859 0 -5 -22z"/>
<path d="M2057 1783 c-9 -8 -9 -216 -1 -237 6 -14 66 -16 575 -16 l569 0 0
130 0 130 -568 0 c-313 0 -572 -3 -575 -7z"/>
</g>
</svg>
